<?xml version="1.0" standalone="no"?>
<!DOCTYPE svg PUBLIC "-//W3C//DTD SVG 20010904//EN"
 "http://www.w3.org/TR/2001/REC-SVG-20010904/DTD/svg10.dtd">
<svg version="1.0" xmlns="http://www.w3.org/2000/svg"
 width="265.000000pt" height="265.000000pt" viewBox="0 0 265.000000 265.000000"
 preserveAspectRatio="xMidYMid meet">
<metadata>
Created by potrace 1.14, written by Peter Selinger 2001-2017
</metadata>
<g transform="translate(0.000000,265.000000) scale(0.100000,-0.100000)"
fill="#000000" stroke="none">
<path d="M1146 2391 c-4 -6 -15 -11 -24 -11 -43 -1 -178 -87 -207 -131 -5 -9
-31 -45 -57 -80 -27 -34 -48 -67 -48 -73 0 -5 -6 -17 -14 -25 -7 -9 -23 -42
-35 -75 -33 -89 -30 -246 7 -416 7 -30 5 -37 -13 -46 -17 -9 -20 -19 -18 -77
2 -112 28 -206 68 -250 19 -20 39 -56 45 -80 7 -23 23 -62 36 -86 28 -51 31
-111 8 -167 -15 -36 -15 -55 3 -136 9 -42 135 -185 192 -220 20 -12 45 -29 56
-39 11 -9 55 -36 98 -59 55 -30 77 -47 77 -61 0 -10 -5 -19 -10 -19 -20 0 -85
39 -125 74 -22 20 -60 46 -84 58 l-45 22 -35 -21 c-19 -11 -37 -26 -39 -32 -5
-16 58 -40 112 -43 25 -2 46 -6 46 -10 0 -5 6 -8 13 -8 6 0 31 -28 54 -63 24
-34 52 -74 64 -89 24 -29 37 -92 38 -175 l1 -53 134 0 134 0 -4 43 c-3 23 -9
75 -15 115 -6 40 -7 101 -4 136 5 41 3 66 -3 70 -15 9 19 64 66 108 50 47 90
92 137 158 34 47 40 62 39 104 0 31 2 42 7 30 5 -13 8 -4 10 31 4 50 -13 105
-32 105 -13 0 -5 207 12 312 10 57 17 79 30 83 9 3 20 13 23 21 3 8 2 12 -4 9
-6 -3 -10 3 -10 15 0 12 5 18 10 15 15 -10 12 6 -6 26 -14 16 -14 19 10 34 29
20 36 69 11 79 -22 8 -39 56 -25 70 8 8 14 7 20 -4 9 -13 10 -13 11 0 1 8 1
24 0 35 -2 17 0 18 9 5 6 -8 10 -55 9 -105 0 -49 0 -99 1 -110 l1 -20 8 20
c15 35 23 143 16 196 -8 57 -29 74 -54 42 -14 -16 -19 -17 -29 -7 -16 18 -15
24 6 24 9 0 13 4 7 8 -6 4 -10 62 -10 139 0 72 -3 129 -6 127 -4 -2 -9 13 -12
34 -10 61 -73 177 -126 229 -62 62 -120 113 -128 113 -3 0 -20 10 -37 23 -17
13 -58 36 -91 52 -51 24 -76 29 -166 33 -72 3 -109 1 -113 -7z m384 -208 c0
-7 11 -13 25 -13 22 0 37 -12 78 -60 23 -28 37 -69 26 -76 -6 -3 -10 -29 -9
-58 1 -28 1 -57 1 -63 -1 -15 -82 -18 -96 -4 -6 5 -26 14 -46 20 -20 7 -44 20
-54 31 -17 19 -29 94 -14 84 14 -9 10 6 -9 34 -25 36 -34 62 -20 59 5 -1 12 6
13 16 7 43 14 47 60 45 28 -2 45 -8 45 -15z m-224 -273 c8 0 14 5 14 10 0 6 9
10 20 10 11 0 18 -6 16 -12 -1 -7 -1 -10 1 -5 3 4 19 7 35 7 17 0 28 -3 25 -7
-4 -3 -2 -12 3 -19 8 -9 5 -12 -12 -13 -49 -1 -60 -5 -68 -26 -15 -40 -130
-42 -130 -3 0 12 -4 16 -11 12 -7 -4 -10 -1 -7 6 2 7 16 14 31 16 21 2 27 -2
27 -17 0 -11 7 -19 16 -19 11 0 14 5 10 16 -3 8 -3 28 1 42 3 15 8 21 11 14 2
-6 10 -12 18 -12z m269 -60 c18 -8 17 -9 -7 -9 -15 -1 -30 4 -33 9 -7 12 12
12 40 0z m102 -27 c-3 -10 -5 -4 -5 12 0 17 2 24 5 18 2 -7 2 -21 0 -30z m-65
-1 c-7 -2 -10 -7 -8 -11 3 -4 -7 -8 -22 -9 l-27 -1 24 19 c12 11 28 17 34 13
8 -5 7 -8 -1 -11z m-272 -28 c5 -5 6 -15 0 -24 -7 -12 -12 -12 -22 -2 -6 6
-20 12 -30 12 -10 0 -18 6 -18 14 0 16 54 16 70 0z m-265 -34 c-3 -5 -13 -10
-21 -10 -8 0 -14 5 -14 10 0 6 9 10 21 10 11 0 17 -4 14 -10z m627 -38 c-19
-6 -14 -21 13 -45 26 -23 40 -73 24 -83 -6 -3 -8 -12 -5 -19 3 -8 0 -16 -7
-19 -7 -2 -5 -5 5 -5 11 -1 15 -7 11 -21 -4 -14 -14 -20 -34 -20 -32 0 -38
-16 -13 -34 38 -28 -31 -70 -75 -46 -12 6 -29 23 -38 38 -10 15 -23 31 -30 35
-8 5 -11 13 -7 18 4 6 10 5 17 -4 16 -20 64 -27 77 -12 13 15 -10 42 -49 57
l-26 10 34 16 c19 10 36 22 38 28 5 14 -44 36 -52 24 -9 -15 -59 -12 -81 5
-18 14 -18 16 -1 26 9 5 15 14 12 20 -11 16 7 10 22 -8 11 -13 13 -14 10 -3
-3 11 3 15 23 15 17 0 26 -4 23 -12 -3 -6 -11 -9 -19 -6 -8 3 -14 0 -14 -6 0
-19 32 -12 51 10 13 15 26 20 44 16 19 -3 25 -1 21 9 -3 7 2 21 11 30 14 13
18 14 22 3 2 -7 -1 -15 -7 -17z m-228 3 c4 -11 -1 -14 -19 -13 -18 2 -21 5
-13 15 14 17 25 16 32 -2z m106 5 c0 -5 -6 -10 -14 -10 -8 0 -18 5 -21 10 -3
6 3 10 14 10 12 0 21 -4 21 -10z m-464 -39 c-10 -16 -46 -20 -46 -5 0 8 10 14
26 14 14 0 23 -4 20 -9z m239 -27 c8 -9 22 -28 30 -44 8 -15 30 -35 49 -44 26
-12 33 -21 29 -36 -8 -30 -21 -34 -64 -20 -34 12 -42 11 -55 -1 -18 -18 -84
-13 -84 6 0 8 12 23 28 34 52 39 54 43 43 54 -8 8 -15 5 -27 -9 -8 -10 -13
-14 -10 -7 4 6 1 13 -5 15 -16 5 -1 48 17 48 8 0 14 5 14 10 0 15 16 12 35 -6z
m205 -74 c0 -5 -4 -10 -10 -10 -5 0 -10 5 -10 10 0 6 5 10 10 10 6 0 10 -4 10
-10z m-753 -187 c-2 -16 -4 -5 -4 22 0 28 2 40 4 28 2 -13 2 -35 0 -50z m593
57 c0 -5 -13 -10 -30 -10 -16 0 -30 5 -30 10 0 6 14 10 30 10 17 0 30 -4 30
-10z m57 -85 c42 -39 28 -48 -30 -19 -42 22 -42 21 -27 39 16 19 13 21 57 -20z
m-640 -52 c-3 -10 -5 -4 -5 12 0 17 2 24 5 18 2 -7 2 -21 0 -30z m562 -29 c17
-4 31 -10 31 -14 0 -11 -65 -23 -132 -25 -82 -2 -74 14 17 35 43 10 49 11 84
4z m36 -84 c-3 -5 -14 -10 -23 -10 -15 0 -15 2 -2 10 20 13 33 13 25 0z m-22
-180 c15 0 18 -3 10 -11 -14 -14 -55 -8 -61 10 -3 10 0 12 12 8 10 -4 27 -7
39 -7z"/>
<path d="M1648 1443 c7 -3 16 -2 19 1 4 3 -2 6 -13 5 -11 0 -14 -3 -6 -6z"/>
<path d="M0 2353 c0 -13 31 -20 130 -27 36 -3 135 -12 220 -21 164 -16 439
-30 430 -21 -6 5 -505 60 -677 73 -79 7 -103 6 -103 -4z"/>
<path d="M1853 1907 c-13 -5 -23 -16 -23 -24 0 -8 5 -11 10 -8 6 3 18 -1 27
-10 16 -16 17 -16 30 1 17 24 16 31 -4 42 -11 6 -27 6 -40 -1z"/>
<path d="M2528 1872 c-16 -6 -15 -10 8 -40 31 -39 46 -40 73 -6 11 14 25 23
31 19 5 -3 10 -2 10 3 0 24 -82 40 -122 24z"/>
<path d="M2518 709 c-35 -20 -9 -70 43 -82 20 -5 31 -1 49 18 13 13 27 22 31
19 5 -3 9 6 9 19 0 21 -6 25 -46 31 -60 8 -65 7 -86 -5z"/>
<path d="M2003 595 c0 -22 2 -30 4 -17 2 12 2 30 0 40 -3 9 -5 -1 -4 -23z"/>
<path d="M755 598 c3 -13 10 -39 14 -58 4 -19 18 -55 31 -80 42 -82 104 -149
80 -86 -5 13 -6 27 -2 32 4 4 1 4 -5 0 -7 -4 -13 -4 -14 1 0 4 -2 19 -3 32 -2
14 -13 31 -24 39 -12 8 -22 23 -22 34 0 10 -4 17 -9 13 -10 -5 -15 6 -26 63
-4 17 -11 32 -17 32 -6 0 -8 -9 -3 -22z m89 -144 c3 -8 2 -12 -4 -9 -6 3 -10
10 -10 16 0 14 7 11 14 -7z"/>
<path d="M1988 527 c-3 -19 -2 -25 4 -19 6 6 8 18 6 28 -3 14 -5 12 -10 -9z"/>
<path d="M1750 509 c0 -5 5 -7 10 -4 6 3 10 8 10 11 0 2 -4 4 -10 4 -5 0 -10
-5 -10 -11z"/>
<path d="M825 500 c-3 -5 -1 -10 4 -10 6 0 11 5 11 10 0 6 -2 10 -4 10 -3 0
-8 -4 -11 -10z"/>
</g>
</svg>
